<svg viewBox="0 0 89 89" xmlns="http://www.w3.org/2000/svg"><defs><linearGradient id="g" x1="44.5" y1="11.9237" x2="44.5" y2="77.0763" gradientUnits="userSpaceOnUse"><stop offset=".342669" stop-color="#B82417"/><stop offset="1" stop-color="#405397"/></linearGradient></defs><circle cx="44.5" cy="44.5" r="32.5763" transform="rotate(30 44.5 44.5)" fill="url(#g)"/><path d="M54.8386 53.2776L52.7566 52.409L53.1632 51.4344C53.7177 50.1054 54.3532 49.1223 55.0698 48.4851C55.8283 47.8307 56.626 47.3314 57.4631 46.9872C58.3125 46.6134 59.1619 46.2397 60.0113 45.8659C60.8731 45.4626 61.6869 44.8833 62.4528 44.128C63.2605 43.3554 63.9847 42.2013 64.6255 40.6656C65.5742 38.3916 65.8692 36.5209 65.5105 35.0537C65.1518 33.5864 64.2046 32.5325 62.6689 31.8917C60.7198 31.0785 59.0532 31.2501 57.6693 32.4063C56.2977 33.5331 55.1928 35.5166 54.3545 38.3568L51.0177 36.1325C51.4173 34.4268 52.1577 32.9847 53.2388 31.8061C54.3495 30.6399 55.7628 29.9119 57.4786 29.6223C59.2068 29.3031 61.1488 29.5932 63.3047 30.4927C65.4015 31.3675 66.9456 32.4451 67.937 33.7256C68.9284 35.0061 69.473 36.3602 69.5708 37.7879C69.6809 39.1861 69.4587 40.5497 68.9043 41.8787C68.3375 43.2372 67.6416 44.2818 66.8167 45.0125C66.0336 45.7259 65.1816 46.272 64.2608 46.6506C63.3523 46.9998 62.4242 47.2713 61.4764 47.4653C60.5582 47.6717 59.6719 47.926 58.8176 48.2284C58.0052 48.5136 57.2677 48.9514 56.6053 49.5418C55.9724 50.1446 55.4809 51.0318 55.1308 52.2033L54.8386 53.2776ZM50.1456 61.4096C49.4073 61.1016 48.9005 60.6127 48.6251 59.943C48.3792 59.2857 48.4103 58.5879 48.7184 57.8496C49.0264 57.1112 49.4943 56.613 50.1221 56.3548C50.7918 56.0794 51.4958 56.0958 52.2341 56.4038C52.9724 56.7118 53.4793 57.2007 53.7547 57.8704C54.0424 58.5105 54.0322 59.1997 53.7242 59.938C53.4161 60.6764 52.9273 61.1832 52.2576 61.4586C51.5879 61.734 50.8839 61.7176 50.1456 61.4096Z"/><path d="M35.4469 53.313L37.5386 52.4679L37.143 51.4887C36.6036 50.1536 35.9792 49.1634 35.2698 48.5182C34.5188 47.8552 33.7267 47.3469 32.8935 46.9933C32.0484 46.61 31.2033 46.2266 30.3581 45.8433C29.501 45.4303 28.6938 44.8419 27.9365 44.0779C27.1375 43.2963 26.4263 42.1341 25.803 40.5913C24.88 38.3067 24.6061 36.4328 24.9813 34.9697C25.3565 33.5066 26.3156 32.4634 27.8584 31.8401C29.8166 31.0489 31.4811 31.2392 32.8519 32.4111C34.2107 33.5532 35.2932 35.549 36.0993 38.3985L39.461 36.212C39.0807 34.5019 38.3567 33.0516 37.2889 31.8609C36.1914 30.6822 34.7865 29.9383 33.074 29.6293C31.3496 29.2906 29.4044 29.5588 27.2385 30.4339C25.132 31.285 23.5758 32.3452 22.57 33.6143C21.5642 34.8835 21.0044 36.2314 20.8905 37.658C20.7646 39.0548 20.9713 40.4208 21.5108 41.756C22.0622 43.1208 22.7462 44.1732 23.5629 44.9131C24.3379 45.6354 25.1836 46.1911 26.1001 46.5801C27.0046 46.9394 27.9296 47.2214 28.8751 47.4261C29.791 47.6428 30.6743 47.9072 31.5251 48.2192C32.3343 48.5135 33.0667 48.9596 33.7225 49.5575C34.3485 50.1674 34.83 51.06 35.1668 52.2354L35.4469 53.313ZM40.0478 61.4974C40.7896 61.1977 41.3019 60.7146 41.5848 60.0481C41.8381 59.3935 41.8149 58.6954 41.5152 57.9537C41.2155 57.2119 40.7532 56.7084 40.1284 56.4432C39.4618 56.1603 38.7577 56.1686 38.016 56.4683C37.2742 56.768 36.7619 57.2511 36.479 57.9176C36.184 58.5545 36.1864 59.2438 36.4861 59.9855C36.7858 60.7273 37.2689 61.2396 37.9354 61.5225C38.6019 61.8054 39.3061 61.7971 40.0478 61.4974Z"/><path d="M45.9717 54.3435L44.4837 54.3435C44.4837 52.0715 44.4357 50.1035 44.3397 48.4395C44.2757 46.7755 44.1797 45.2715 44.0517 43.9275C43.9237 42.5835 43.7957 41.2555 43.6677 39.9435C43.5397 38.6315 43.4277 37.2395 43.3317 35.7675C43.2677 34.2635 43.2357 32.5195 43.2357 30.5355L47.1717 30.5355C47.1717 32.5195 47.1237 34.2635 47.0277 35.7675C46.9637 37.2395 46.8677 38.6315 46.7397 39.9435C46.6437 41.2555 46.5317 42.5835 46.4037 43.9275C46.2757 45.2715 46.1637 46.7755 46.0677 48.4395C46.0037 50.1035 45.9717 52.0715 45.9717 54.3435ZM45.1557 63.6555C44.3557 63.6555 43.6997 63.3995 43.1877 62.8875C42.7077 62.3755 42.4677 61.7195 42.4677 60.9195C42.4677 60.1195 42.7077 59.4795 43.1877 58.9995C43.6997 58.4875 44.3557 58.2315 45.1557 58.2315C45.9877 58.2315 46.6597 58.4875 47.1717 58.9995C47.6837 59.4795 47.9397 60.1195 47.9397 60.9195C47.9397 61.7195 47.6837 62.3755 47.1717 62.8875C46.6597 63.3995 45.9877 63.6555 45.1557 63.6555Z"/></svg>
