<svg width="89" height="89" viewBox="0 0 89 89" fill="none" xmlns="http://www.w3.org/2000/svg">
<circle cx="44.5" cy="44.5" r="32.5763" transform="rotate(30 44.5 44.5)" fill="url(#paint0_linear_1019_2)"/>
<path d="M55.0793 51.0459L52.9875 50.2008L53.3831 49.2217C53.9226 47.8865 54.547 46.8963 55.2563 46.2511C56.0073 45.5881 56.7994 45.0798 57.6326 44.7262C58.4777 44.3429 59.3228 43.9596 60.168 43.5762C61.0251 43.1632 61.8323 42.5748 62.5896 41.8109C63.3886 41.0292 64.0998 39.867 64.7231 38.3242C65.6462 36.0396 65.92 34.1658 65.5448 32.7027C65.1696 31.2396 64.2105 30.1963 62.6677 29.573C60.7095 28.7818 59.045 28.9721 57.6742 30.144C56.3154 31.2861 55.2329 33.2819 54.4268 36.1314L51.0651 33.9449C51.4454 32.2349 52.1694 30.7845 53.2372 29.5938C54.3347 28.4151 55.7397 27.6712 57.4521 27.3622C59.1765 27.0235 61.1217 27.2917 63.2876 28.1668C65.3942 29.0179 66.9503 30.0781 67.9561 31.3473C68.9619 32.6165 69.5218 33.9643 69.6357 35.3909C69.7616 36.7877 69.5548 38.1537 69.0154 39.4889C68.4639 40.8537 67.7799 41.9061 66.9632 42.646C66.1882 43.3683 65.3425 43.924 64.426 44.313C63.5216 44.6723 62.5966 44.9543 61.651 45.159C60.7352 45.3757 59.8518 45.6401 59.001 45.9521C58.1918 46.2464 57.4594 46.6925 56.8037 47.2904C56.1776 47.9003 55.6962 48.7929 55.3593 49.9683L55.0793 51.0459ZM50.4783 59.2303C49.7366 58.9306 49.2242 58.4475 48.9413 57.781C48.6881 57.1265 48.7113 56.4283 49.011 55.6866C49.3106 54.9448 49.7729 54.4413 50.3978 54.1761C51.0643 53.8932 51.7684 53.9016 52.5102 54.2012C53.2519 54.5009 53.7643 54.984 54.0472 55.6505C54.3421 56.2874 54.3397 56.9767 54.04 57.7184C53.7403 58.4602 53.2572 58.9725 52.5907 59.2554C51.9242 59.5384 51.2201 59.53 50.4783 59.2303Z" fill="black"/>
<path d="M35.6894 50.9919L37.7811 50.1468L37.3855 49.1677C36.8461 47.8326 36.2217 46.8424 35.5123 46.1971C34.7613 45.5342 33.9692 45.0259 33.136 44.6722C32.2909 44.2889 31.4458 43.9056 30.6006 43.5223C29.7435 43.1093 28.9363 42.5208 28.179 41.7569C27.38 40.9753 26.6688 39.8131 26.0455 38.2702C25.1225 35.9856 24.8486 34.1118 25.2238 32.6487C25.599 31.1856 26.5581 30.1424 28.1009 29.519C30.0591 28.7279 31.7236 28.9182 33.0944 30.09C34.4532 31.2322 35.5357 33.228 36.3418 36.0775L39.7035 33.891C39.3232 32.1809 38.5992 30.7305 37.5314 29.5398C36.4339 28.3611 35.029 27.6173 33.3165 27.3082C31.5921 26.9696 29.6469 27.2378 27.481 28.1129C25.3744 28.964 23.8183 30.0241 22.8125 31.2933C21.8067 32.5625 21.2468 33.9104 21.1329 35.3369C21.0071 36.7338 21.2138 38.0998 21.7533 39.4349C22.3047 40.7998 22.9887 41.8521 23.8054 42.5921C24.5804 43.3144 25.4261 43.87 26.3426 44.259C27.247 44.6184 28.172 44.9004 29.1176 45.1051C30.0334 45.3218 30.9168 45.5861 31.7676 45.8981C32.5768 46.1924 33.3092 46.6385 33.965 47.2364C34.591 47.8463 35.0725 48.739 35.4093 49.9144L35.6894 50.9919ZM40.2903 59.1763C41.0321 58.8766 41.5444 58.3935 41.8273 57.727C42.0806 57.0725 42.0573 56.3744 41.7577 55.6326C41.458 54.8909 40.9957 54.3874 40.3708 54.1221C39.7043 53.8392 39.0002 53.8476 38.2584 54.1473C37.5167 54.447 37.0044 54.9301 36.7214 55.5966C36.4265 56.2334 36.4289 56.9227 36.7286 57.6645C37.0283 58.4062 37.5114 58.9186 38.1779 59.2015C38.8444 59.4844 39.5486 59.476 40.2903 59.1763Z" fill="black"/>
<path d="M45.9716 54.3435L44.4836 54.3435C44.4836 52.0715 44.4356 50.1035 44.3396 48.4395C44.2756 46.7755 44.1796 45.2715 44.0516 43.9275C43.9236 42.5835 43.7956 41.2555 43.6676 39.9435C43.5396 38.6315 43.4276 37.2395 43.3316 35.7675C43.2676 34.2635 43.2356 32.5195 43.2356 30.5355L47.1716 30.5355C47.1716 32.5195 47.1236 34.2635 47.0276 35.7675C46.9636 37.2395 46.8676 38.6315 46.7396 39.9435C46.6436 41.2555 46.5316 42.5835 46.4036 43.9275C46.2756 45.2715 46.1636 46.7755 46.0676 48.4395C46.0036 50.1035 45.9716 52.0715 45.9716 54.3435ZM45.1556 63.6555C44.3556 63.6555 43.6996 63.3995 43.1876 62.8875C42.7076 62.3755 42.4676 61.7195 42.4676 60.9195C42.4676 60.1195 42.7076 59.4795 43.1876 58.9995C43.6996 58.4875 44.3556 58.2315 45.1556 58.2315C45.9876 58.2315 46.6596 58.4875 47.1716 58.9995C47.6836 59.4795 47.9396 60.1195 47.9396 60.9195C47.9396 61.7195 47.6836 62.3755 47.1716 62.8875C46.6596 63.3995 45.9876 63.6555 45.1556 63.6555Z" fill="black"/>
<defs>
<linearGradient id="paint0_linear_1019_2" x1="44.5" y1="11.9237" x2="44.5" y2="77.0763" gradientUnits="userSpaceOnUse">
<stop offset="0.342669" stop-color="#B82417"/>
<stop offset="1" stop-color="#405397"/>
</linearGradient>
</defs>
</svg>
